# Object Export From Tinkercad Server 2015

mtllib obj.mtl

o obj_0
v 34.811 		-37.8294 		13.15
v 33.392 		-40.554 		13.15
v 50.3599 		-43.966 		12
v 50.3599 		-43.966 		13.003
v 50.837 		-45.118 		12
v 38.364 		-54.646 		12
v 49.4015 		-41.6518 		13.003
v 40.3508 		-55.5143 		12
v 37.4365 		-35.1316 		12
v 49.913 		-45.501 		12
v 37.087 		-35.343 		12
v 38.019 		-55.209 		12.076
v 49.4358 		-44.3487 		13.003
v 49.4358 		-44.3487 		12
v 29.297 		-29.297 		12
v 38.019 		-55.209 		13.074
v 34.811 		-44.922 		13.15
v 34.74 		-43.851 		13.15
v 25.88 		-33.75 		12
v 37.087 		-35.343 		13.15
v 43.004 		-41.9089 		-0.0001
v 38.364 		-54.646 		13.15
v 32.941 		-46.926 		13.15
v 49.152 		-41.7551 		12
v 49.4015 		-41.6518 		12
v 34.811 		-43.5132 		13.15
v 46.129 		-37.982 		14
v 34.014 		-49.967 		13.15
v 34.811 		-51.1016 		13.15
v 47.207 		-37.641 		14
v 32.728 		-43.709 		13.15
v 48.062 		-37.11 		14
v 53.6381 		-40.96 		12
v 53.801 		-41.276 		12
v 53.801 		-41.276 		13.15
v 54.339 		-43.896 		12
v 54.339 		-43.896 		13.15
v 34.342 		-37.312 		12.076
v 54.15 		-46.564 		12
v 54.15 		-46.564 		13.15
v 33.392 		-40.554 		12
v 32.769 		-40.331 		12.076
v 34.811 		-37.8294 		12
v 53.8141 		-47.503 		12
v 53.249 		-49.083 		12
v 53.249 		-49.083 		13.15
v 56.351 		-43.763 		12
v 57.011 		-43.719 		12.076
v 33.3066 		-40.96 		12
v 57.011 		-43.719 		13.074
v 34.342 		-37.312 		13.074
v 32.769 		-40.331 		13.074
v 56.351 		-43.763 		13.15
v 53.2001 		-49.152 		12
v 56.124 		-46.979 		12
v 56.771 		-47.115 		12.076
v 34.811 		-44.922 		12
v 34.74 		-43.851 		12
v 56.771 		-47.115 		13.074
v 34.811 		-45.7264 		12
v 56.124 		-46.979 		13.15
v 34.811 		-43.5132 		12
v 32.8716 		-45.8772 		12
v 32.941 		-46.926 		12
v 32.9584 		-46.9754 		12
v 32.9491 		-46.9817 		12.0013
v 48.924 		-40.499 		12
v 49.152 		-41.0495 		12
v 48.4773 		-42.0345 		12
v 48.4773 		-42.0345 		13.003
v 48 		-40.882 		12
v 39.924 		-44 		12
v 40.4015 		-45.1528 		13.003
v 40.4015 		-45.1528 		12
v 41.3599 		-47.467 		12
v 41.3599 		-47.467 		13.003
v 41.837 		-48.619 		12
v 41.498 		-47.8005 		12
v 32.768 		-43.5189 		12
v 39.4773 		-45.5355 		12
v 39.4773 		-45.5355 		13.003
v 39 		-44.383 		12
v 32.768 		-44.3131 		12
v 40.913 		-49.002 		12
v 40.4358 		-47.8497 		13.003
v 40.4358 		-47.8497 		12
v 33.426 		-50.27 		12.503
v 33.426 		-50.27 		13.074
v 41.498 		-48.7595 		12
v 42.86 		-41.974 		0.0234
v 42.3834 		-42.3834 		0.0008
v 34.917 		-46.521 		13.15
v 35.29 		-41.234 		13.15
v 44.934 		-38.099 		14
v 41.258 		-36.441 		14
v 41.0845 		-35.7597 		14.15
v 41.0845 		-35.7597 		14
v 33.75 		-25.88 		12
v 37.1862 		-51.0073 		12.503
v 41.807 		-37.11 		14
v 51.701 		-51.265 		12
v 51.701 		-51.265 		13.15
v 52 		-35.3587 		12
v 37.1862 		-51.0073 		12
v 35.867 		-52.605 		13.15
v 42.662 		-37.641 		14
v 49.622 		-52.948 		12
v 43.645 		-41.619 		0.0147
v 49.622 		-52.948 		13.15
v 52.449 		-34.866 		12.076
v 55.623 		-50.32 		12.076
v 43.74 		-37.982 		14
v 49.279 		-33.696 		12
v 52.03 		-35.377 		12
v 43.7249 		-41.6077 		0.0015
v 50.666 		-54.674 		13.15
v 53.172 		-52.644 		13.15
v 49.2472 		-33.687 		12
v 54.4286 		-50.8727 		12
v 55.037 		-50.015 		12
v 39.529 		-39.397 		14
v 41.0049 		-35.8087 		14
v 37.791 		-38.699 		14
v 52.449 		-34.866 		13.074
v 38.935 		-23.733 		12
v 47.167 		-54.008 		13.15
v 55.623 		-50.32 		13.074
v 52.03 		-35.377 		13.15
v 47.706 		-55.951 		13.15
v 44.5 		-41.498 		0.0064
v 48.762 		-39.397 		12
v 55.037 		-50.015 		13.15
v 44.5 		-23 		12
v 41.718 		-39.846 		14
v 44.145 		-40 		14
v 32.069 		-43.663 		12.076
v 45.2751 		-41.6077 		0.0015
v 44.516 		-54.366 		13.15
v 46.573 		-39.846 		14
v 48.762 		-39.397 		14
v 32.728 		-43.709 		12
v 41.866 		-53.996 		13.15
v 41.318 		-55.937 		13.15
v 49.152 		-53.1509 		12
v 32.294 		-47.059 		12.076
v 51.008 		-55.239 		12.076
v 44.511 		-56.383 		13.15
v 50.065 		-23.733 		12
v 52 		-38.2794 		12
v 52.575 		-38.898 		12
v 52.575 		-38.898 		13.15
v 49.152 		-55.3272 		12
v 50.666 		-54.674 		12
v 45.996 		-41.9089 		-0.0001
v 53.1431 		-40 		12
v 44.5 		-66 		12
v 50.065 		-65.267 		12
v 53.172 		-52.644 		12
v 53.654 		-53.097 		12.076
v 55.25 		-63.12 		12
v 59.703 		-59.703 		12
v 32.3978 		-47.3534 		12.076
v 45.355 		-41.619 		0.0147
v 54.767 		-37.359 		12.076
v 32.069 		-43.663 		13.074
v 32.294 		-47.059 		13.074
v 54.226 		-37.739 		12
v 32.3978 		-47.3534 		12.503
v 37.2296 		-35.2567 		13.15
v 51.008 		-55.239 		13.074
v 53.654 		-53.097 		13.074
v 36.291 		-36.1917 		12
v 36.3672 		-36.1104 		12
v 55.25 		-25.88 		12
v 36.526 		-38.861 		13.15
v 36.291 		-39.3122 		12
v 36.526 		-38.861 		12
v 46.14 		-41.974 		0.0234
v 36.9201 		-38.4413 		12
v 37.1516 		-38.1948 		12
v 46.6166 		-42.3834 		0.0008
v 37.1516 		-38.1948 		13.15
v 37.791 		-38.699 		12
v 35.6604 		-36.864 		12
v 39.529 		-39.397 		12
v 47.167 		-54.008 		12
v 45.056 		-54.2931 		12
v 41.718 		-39.846 		12
v 47.706 		-55.951 		12
v 47.883 		-56.588 		12.076
v 41.0049 		-35.8087 		14.15
v 41.498 		-39.8009 		12
v 45.056 		-56.3093 		12
v 44.145 		-40 		12
v 63.12 		-55.25 		12
v 65.267 		-50.065 		12
v 55.702 		-40.605 		13.15
v 36.291 		-36.844 		14
v 36.3427 		-36.9754 		14
v 36.291 		-36.844 		13.15
v 35.4327 		-40.96 		12
v 55.7649 		-42.0492 		13.15
v 34.881 		-37.695 		12
v 59.703 		-29.297 		12
v 36.3427 		-36.9754 		13.15
v 55.5229 		-41.465 		13.15
v 47.883 		-56.588 		13.074
v 46.792 		-42.534 		0.0318
v 36.0997 		-37.4464 		13.15
v 36.0997 		-37.4464 		14.15
v 56 		-42.617 		13.15
v 47.0956 		-43.0015 		0.0032
v 54.226 		-37.739 		13.15
v 54.087 		-37.998 		13.15
v 54.5645 		-39.1508 		13.15
v 34.881 		-37.695 		13.15
v 36.4579 		-37.2678 		14
v 36.675 		-37.819 		14
v 38.657 		-36.172 		14
v 44.516 		-54.366 		12
v 63.12 		-33.75 		12
v 36.4579 		-37.2678 		13.15
v 36.675 		-37.819 		13.15
v 41.866 		-53.996 		12
v 47.259 		-43.253 		0.039
v 35.807 		-49.043 		13.15
v 41.498 		-53.8352 		12
v 47.3989 		-43.7232 		0.0059
v 35.807 		-49.043 		12.503
v 55.076 		-43 		13.15
v 54.5988 		-41.8477 		13.15
v 41.318 		-55.937 		12
v 41.138 		-56.573 		12.076
v 65.267 		-38.935 		12
v 38.657 		-36.172 		14.15
v 34.917 		-46.521 		12.503
v 47.503 		-44.073 		0.0435
v 34.862 		-45.692 		12.503
v 54.767 		-37.359 		13.074
v 66 		-44.5 		12
v 47.503 		-44.5 		0.0071
v 44.51 		-57.044 		12.076
v 34.862 		-45.692 		12
v 47.3989 		-45.2768 		0.0059
v 37.568 		-34.601 		13.15
v 37.568 		-34.601 		14.15
v 47.503 		-44.927 		0.0435
v 37.078 		-35.5506 		14
v 36.675 		-35.868 		14
v 44.511 		-56.383 		12
v 41.498 		-55.9621 		12
v 37.078 		-35.5506 		13.15
v 36.675 		-35.868 		13.15
v 39.415 		-52.925 		13.15
v 35.29 		-41.234 		12
v 37.344 		-51.232 		13.15
v 46.268 		-32.164 		12.076
v 41.138 		-56.573 		13.074
v 35.383 		-53.055 		12.076
v 34.9864 		-52.4906 		12.076
v 35.0991 		-52.4146 		12.0602
v 55.4855 		-42.8303 		13.15
v 44.51 		-57.044 		13.074
v 35.867 		-52.605 		12
v 42.864 		-32.157 		12.076
v 35.5294 		-52.1244 		12
v 36.291 		-52.9516 		12
v 53.642 		-38.1825 		13.15
v 44.5 		-47.503 		12
v 46.268 		-32.164 		13.074
v 34.9864 		-52.4906 		12.503
v 35.383 		-53.055 		13.074
v 39.415 		-52.925 		12
v 48.611 		-36.441 		14
v 47.259 		-45.747 		0.039
v 48.8 		-35.699 		14
v 37.344 		-51.232 		12
v 47.0956 		-45.9985 		0.0032
v 48.6443 		-35.0885 		14
v 48.6443 		-35.0885 		14.15
v 53.642 		-39.5328 		13.15
v 41.789 		-30.977 		13.15
v 44.226 		-30.5 		13.15
v 46.663 		-30.977 		13.15
v 48.934 		-32.376 		13.15
v 46.792 		-46.466 		0.0318
v 46.6166 		-46.6166 		0.0008
v 48.759 		-35.062 		14
v 39.518 		-32.376 		13.15
v 48.759 		-35.062 		14.15
v 55.702 		-40.605 		12
v 56.326 		-40.385 		12.076
v 45.996 		-47.0911 		-0.0001
v 54.5645 		-39.1508 		14.003
v 39.924 		-44 		14
v 41.837 		-48.619 		14
v 55.5229 		-41.465 		14.003
v 46.14 		-47.026 		0.0234
v 40.913 		-49.002 		14
v 39 		-44.383 		14
v 54.087 		-37.998 		15
v 56 		-42.617 		15
v 54.5988 		-41.8477 		14.003
v 55.076 		-43 		15
v 43.645 		-47.381 		12
v 56.326 		-40.385 		13.074
v 42.864 		-32.157 		13.074
v 42.86 		-47.026 		12
v 45.355 		-47.381 		0.0147
v 42.208 		-46.466 		12
v 45.2751 		-47.3924 		0.0015
v 41.741 		-45.747 		12
v 44.5 		-47.503 		0.0071
v 53.163 		-38.381 		15
v 49.544 		-33.09 		12.076
v 47.259 		-45.747 		12
v 43.004 		-47.0911 		-0.0001
v 46.129 		-33.417 		15.4
v 46.129 		-37.982 		15.4
v 47.207 		-37.641 		15.4
v 48.062 		-37.11 		15.4
v 48.611 		-36.441 		15.4
v 48.8 		-35.699 		15.4
v 48.611 		-34.958 		15.4
v 48.062 		-34.288 		15.4
v 46.792 		-46.466 		12
v 47.207 		-33.758 		15.4
v 23.733 		-38.935 		12
v 23 		-44.5 		12
v 23.733 		-50.065 		12
v 25.88 		-55.25 		12
v 44.934 		-33.299 		15.4
v 29.297 		-59.703 		12
v 43.74 		-33.417 		15.4
v 42.662 		-33.758 		15.4
v 41.807 		-34.288 		15.4
v 46.14 		-47.026 		12
v 41.258 		-34.958 		15.4
v 41.069 		-35.699 		15.4
v 41.258 		-36.441 		15.4
v 41.807 		-37.11 		15.4
v 42.662 		-37.641 		15.4
v 43.74 		-37.982 		15.4
v 44.934 		-38.099 		15.4
v 45.355 		-47.381 		12
v 43.645 		-47.381 		0.0147
v 33.75 		-63.12 		12
v 43.7249 		-47.3924 		0.0015
v 41.498 		-44.927 		12
v 42.86 		-47.026 		0.0234
v 49.544 		-33.09 		13.074
v 41.498 		-44.073 		12
v 41.741 		-43.253 		12
v 48.611 		-34.958 		14.15
v 48.062 		-34.288 		14.15
v 42.208 		-46.466 		0.0318
v 47.207 		-33.758 		14.15
v 42.3834 		-46.6166 		0.0008
v 42.208 		-42.534 		12
v 46.129 		-33.417 		14.15
v 41.741 		-45.747 		0.039
v 41.9044 		-45.9985 		0.0032
v 42.86 		-41.974 		12
v 42.953 		-32.812 		12
v 43.645 		-41.619 		12
v 44.0066 		-32.8143 		12
v 49.279 		-33.696 		13.15
v 44.934 		-33.299 		14.15
v 41.6016 		-45.2767 		0.0056
v 44.5 		-41.498 		12
v 43.74 		-33.417 		14.15
v 40.96 		-33.3649 		12
v 45.355 		-41.619 		12
v 42.662 		-33.758 		14.15
v 42.953 		-32.812 		13.15
v 41.807 		-34.288 		14.15
v 46.14 		-41.974 		12
v 41.258 		-34.958 		14.15
v 46.792 		-42.534 		12
v 41.069 		-35.699 		14.15
v 51.616 		-35.868 		13.15
v 47.259 		-43.253 		12
v 50.9411 		-34.7116 		13.15
v 47.503 		-44.073 		12
v 51.4843 		-35.7643 		13.15
v 47.503 		-44.927 		12
v 46.177 		-32.819 		12
v 47.503 		-33.1939 		12
v 50.884 		-34.601 		13.15
v 41.498 		-44.927 		0.0429
v 39.518 		-32.376 		14.15
v 41.741 		-43.253 		0.039
v 52 		-36.844 		13.15
v 48.934 		-32.376 		14.15
v 46.177 		-32.819 		13.15
v 41.498 		-44.073 		0.0429
v 41.6016 		-43.7233 		0.0056
v 44.226 		-30.5 		14.15
v 41.789 		-30.977 		14.15
v 42.208 		-42.534 		0.0318
v 46.663 		-30.977 		14.15
v 41.9044 		-43.0015 		0.0032
v 39.584 		-33.068 		12.076
v 39.846 		-33.674 		12
v 51.303 		-35.649 		14.15
v 51.616 		-37.819 		13.15
v 51.5906 		-37.839 		13.15
v 51.5005 		-35.7957 		14.15
v 39.8245 		-33.687 		12
v 50.884 		-34.601 		14.15
v 39.584 		-33.068 		13.074
v 39.846 		-33.674 		13.15
v 46.573 		-39.846 		12
v 38.935 		-65.267 		12
v 53.6403 		-39.5335 		13.15
v 53.163 		-38.381 		13.15
v 51.8762 		-38.1463 		12
v 50.5 		-38.699 		12
v 51.5906 		-37.839 		12
v 39.3145 		-33.9955 		12
v 50.837 		-45.118 		14
v 36.671 		-34.83 		12.076
v 49.913 		-45.501 		14
v 38.4691 		-34.5069 		12
v 36.671 		-34.83 		13.074
v 51.616 		-35.868 		14
v 51.4843 		-35.7643 		14
v 51.5005 		-35.7957 		14
v 51.303 		-35.649 		14
v 50.5 		-38.699 		14
v 52 		-36.844 		14
v 51.616 		-37.819 		14
v 53.6403 		-39.5335 		14.003
v 48.924 		-40.499 		14
v 48 		-40.882 		14
v 41.498 		-44.5 		0.0064
# 436 vertices

g group_0_8273816

usemtl color_8273816
s 0

f 3 	4 	5
f 7 	421 	4
f 10 	13 	14
f 10 	423 	13
f 91 	400 	15
f 18 	31 	17
f 29 	17 	28
f 23 	28 	17
f 7 	24 	25
f 2 	31 	26
f 1 	2 	26
f 13 	4 	3
f 13 	3 	14
f 4 	13 	7
f 70 	7 	13
f 18 	26 	31
f 23 	17 	31
f 33 	34 	35
f 151 	155 	35
f 35 	34 	36
f 35 	36 	37
f 37 	36 	39
f 37 	39 	40
f 41 	42 	43
f 40 	39 	44
f 45 	46 	44
f 40 	44 	46
f 42 	38 	203
f 292 	48 	47
f 48 	292 	50
f 52 	51 	42
f 38 	42 	51
f 53 	50 	197
f 2 	1 	51
f 52 	2 	51
f 46 	45 	54
f 46 	54 	102
f 56 	120 	55
f 31 	2 	52
f 18 	17 	57
f 18 	57 	58
f 48 	55 	47
f 55 	48 	56
f 56 	48 	59
f 50 	59 	48
f 62 	26 	18
f 62 	18 	58
f 65 	66 	64
f 53 	61 	59
f 162 	145 	66
f 50 	53 	59
f 69 	70 	71
f 13 	423 	70
f 71 	70 	435
f 435 	67 	71
f 24 	7 	70
f 24 	70 	69
f 236 	229 	168
f 72 	73 	74
f 65 	60 	238
f 66 	65 	168
f 238 	168 	65
f 76 	296 	78
f 75 	76 	78
f 295 	296 	73
f 72 	295 	73
f 76 	73 	296
f 79 	136 	49
f 300 	82 	81
f 80 	81 	82
f 64 	145 	63
f 84 	85 	86
f 84 	299 	85
f 85 	299 	81
f 166 	168 	88
f 77 	296 	89
f 87 	271 	88
f 84 	89 	299
f 17 	29 	92
f 321 	30 	32
f 91 	15 	90
f 300 	295 	82
f 72 	82 	295
f 28 	88 	29
f 73 	81 	80
f 73 	80 	74
f 143 	22 	16
f 21 	90 	98
f 85 	76 	75
f 85 	75 	86
f 95 	96 	97
f 76 	85 	73
f 81 	73 	85
f 98 	90 	15
f 226 	92 	29
f 54 	101 	102
f 102 	101 	107
f 102 	107 	109
f 109 	116 	102
f 21 	98 	108
f 119 	120 	111
f 95 	219 	121
f 109 	126 	116
f 120 	56 	111
f 98 	125 	108
f 115 	108 	125
f 111 	56 	127
f 59 	127 	56
f 115 	125 	130
f 133 	130 	125
f 129 	116 	126
f 136 	42 	41
f 129 	126 	138
f 136 	165 	42
f 133 	148 	130
f 94 	112 	135
f 61 	132 	127
f 41 	49 	136
f 143 	147 	142
f 59 	61 	127
f 141 	136 	79
f 109 	107 	144
f 145 	136 	141
f 137 	130 	148
f 30 	27 	139
f 165 	136 	145
f 151 	149 	150
f 27 	94 	139
f 152 	153 	146
f 141 	83 	145
f 83 	63 	145
f 139 	140 	30
f 161 	153 	160
f 160 	152 	157
f 158 	159 	153
f 155 	151 	150
f 64 	66 	145
f 148 	163 	137
f 42 	165 	52
f 135 	139 	94
f 159 	146 	153
f 158 	111 	159
f 97 	122 	95
f 122 	219 	95
f 166 	165 	145
f 159 	171 	146
f 87 	88 	168
f 171 	159 	127
f 111 	127 	159
f 95 	121 	100
f 100 	134 	106
f 145 	162 	168
f 145 	168 	166
f 111 	158 	119
f 121 	134 	100
f 135 	112 	134
f 165 	31 	52
f 106 	134 	112
f 171 	170 	146
f 166 	23 	165
f 154 	163 	174
f 148 	174 	163
f 23 	31 	165
f 166 	28 	23
f 175 	176 	177
f 166 	88 	28
f 179 	175 	177
f 238 	236 	168
f 117 	116 	170
f 171 	117 	170
f 175 	179 	182
f 180 	182 	179
f 162 	66 	168
f 183 	123 	182
f 127 	132 	171
f 183 	182 	180
f 183 	185 	121
f 183 	121 	123
f 154 	174 	178
f 184 	38 	172
f 132 	117 	171
f 144 	186 	126
f 144 	126 	109
f 121 	192 	134
f 185 	192 	121
f 126 	186 	187
f 188 	135 	134
f 38 	422 	11
f 188 	134 	192
f 97 	191 	122
f 422 	38 	51
f 189 	190 	193
f 191 	97 	96
f 194 	135 	188
f 20 	425 	216
f 55 	120 	196
f 248 	249 	199
f 189 	146 	190
f 181 	178 	204
f 176 	175 	93
f 176 	93 	201
f 207 	190 	170
f 146 	170 	190
f 211 	197 	202
f 202 	197 	206
f 205 	199 	200
f 198 	200 	199
f 146 	189 	152
f 11 	173 	38
f 203 	38 	184
f 204 	178 	174
f 53 	197 	211
f 207 	263 	190
f 42 	203 	43
f 209 	210 	199
f 181 	204 	208
f 214 	215 	213
f 197 	213 	215
f 207 	129 	263
f 199 	205 	209
f 204 	221 	208
f 212 	208 	221
f 170 	116 	207
f 248 	199 	210
f 116 	129 	207
f 123 	121 	219
f 218 	123 	219
f 217 	218 	219
f 187 	220 	138
f 187 	138 	126
f 217 	222 	223
f 217 	223 	218
f 51 	1 	216
f 138 	220 	224
f 138 	224 	142
f 37 	231 	35
f 123 	218 	182
f 223 	182 	218
f 164 	167 	110
f 142 	224 	227
f 221 	234 	225
f 228 	225 	234
f 221 	225 	212
f 231 	37 	230
f 40 	61 	37
f 222 	217 	209
f 110 	124 	164
f 239 	164 	124
f 219 	235 	217
f 235 	210 	217
f 92 	226 	229
f 92 	229 	236
f 230 	37 	53
f 6 	8 	233
f 110 	167 	114
f 234 	237 	228
f 217 	210 	209
f 236 	238 	92
f 191 	235 	219
f 191 	219 	122
f 233 	12 	6
f 241 	237 	240
f 234 	240 	237
f 242 	233 	232
f 92 	238 	17
f 57 	17 	238
f 57 	238 	243
f 46 	61 	40
f 233 	258 	12
f 102 	117 	46
f 245 	246 	289
f 242 	258 	233
f 87 	168 	229
f 271 	87 	229
f 240 	196 	247
f 198 	199 	249
f 238 	60 	243
f 232 	251 	242
f 250 	242 	251
f 138 	142 	147
f 129 	138 	147
f 248 	252 	253
f 248 	253 	249
f 124 	128 	239
f 93 	26 	62
f 93 	62 	255
f 254 	22 	142
f 116 	117 	102
f 61 	46 	132
f 132 	46 	117
f 190 	250 	193
f 198 	249 	200
f 253 	200 	249
f 93 	255 	201
f 190 	242 	250
f 128 	213 	239
f 210 	246 	248
f 245 	169 	246
f 226 	99 	229
f 258 	16 	12
f 259 	260 	261
f 242 	263 	258
f 263 	242 	190
f 264 	259 	261
f 262 	230 	53
f 252 	248 	169
f 248 	246 	169
f 264 	261 	266
f 53 	37 	61
f 211 	262 	53
f 257 	265 	270
f 195 	196 	120
f 263 	147 	258
f 272 	259 	16
f 147 	143 	258
f 32 	30 	140
f 129 	147 	263
f 337 	345 	144
f 305 	220 	269
f 305 	308 	77
f 77 	220 	305
f 187 	186 	345
f 244 	247 	196
f 240 	247 	241
f 272 	88 	271
f 260 	259 	271
f 272 	271 	259
f 231 	206 	35
f 142 	227 	254
f 273 	254 	227
f 254 	273 	277
f 254 	277 	256
f 323 	322 	276
f 274 	276 	322
f 197 	35 	206
f 272 	105 	88
f 232 	233 	8
f 276 	279 	280
f 276 	280 	323
f 54 	10 	101
f 44 	5 	45
f 10 	316 	101
f 54 	45 	10
f 105 	29 	88
f 215 	281 	197
f 35 	197 	281
f 143 	16 	258
f 140 	430 	32
f 274 	32 	430
f 430 	429 	274
f 22 	272 	16
f 278 	275 	195
f 244 	196 	275
f 119 	158 	195
f 22 	105 	272
f 195 	275 	196
f 120 	119 	195
f 226 	256 	99
f 256 	277 	99
f 104 	99 	277
f 285 	395 	284
f 12 	259 	264
f 99 	271 	229
f 22 	254 	105
f 256 	105 	254
f 279 	276 	288
f 278 	195 	286
f 195 	161 	286
f 16 	259 	12
f 280 	279 	288
f 280 	288 	290
f 271 	99 	266
f 104 	266 	99
f 271 	266 	261
f 271 	261 	260
f 264 	267 	12
f 6 	12 	267
f 33 	35 	155
f 283 	284 	395
f 152 	160 	153
f 434 	68 	67
f 7 	68 	434
f 291 	292 	47
f 283 	375 	282
f 287 	286 	161
f 143 	142 	22
f 226 	29 	256
f 105 	256 	29
f 153 	161 	158
f 161 	195 	158
f 214 	294 	215
f 77 	78 	296
f 164 	292 	291
f 302 	202 	297
f 211 	202 	302
f 206 	297 	202
f 300 	81 	299
f 299 	296 	300
f 295 	300 	296
f 302 	297 	294
f 214 	301 	294
f 302 	294 	301
f 299 	89 	296
f 144 	345 	186
f 287 	161 	298
f 230 	304 	303
f 230 	303 	231
f 164 	291 	167
f 314 	433 	304
f 303 	304 	433
f 293 	298 	160
f 302 	314 	304
f 301 	314 	302
f 306 	50 	292
f 160 	298 	161
f 270 	265 	307
f 230 	262 	304
f 302 	304 	262
f 302 	262 	211
f 189 	157 	152
f 164 	239 	292
f 306 	292 	239
f 403 	411 	265
f 307 	265 	411
f 306 	197 	50
f 310 	75 	308
f 307 	375 	270
f 239 	213 	306
f 220 	77 	224
f 187 	269 	220
f 227 	224 	77
f 160 	157 	309
f 309 	293 	160
f 294 	281 	215
f 312 	75 	310
f 78 	77 	308
f 213 	197 	306
f 303 	297 	206
f 303 	206 	231
f 311 	309 	157
f 433 	294 	303
f 297 	303 	294
f 68 	7 	25
f 72 	74 	349
f 193 	250 	156
f 414 	156 	250
f 311 	157 	313
f 156 	313 	157
f 214 	268 	301
f 318 	344 	319
f 318 	319 	320
f 321 	327 	320
f 322 	324 	321
f 323 	324 	322
f 325 	321 	324
f 327 	321 	325
f 318 	320 	327
f 328 	41 	19
f 329 	141 	328
f 330 	64 	329
f 339 	340 	338
f 340 	341 	338
f 336 	338 	341
f 335 	336 	341
f 341 	342 	335
f 334 	335 	342
f 342 	343 	334
f 343 	344 	334
f 332 	334 	344
f 318 	332 	344
f 344 	94 	319
f 27 	319 	94
f 320 	319 	30
f 27 	30 	319
f 269 	187 	345
f 30 	321 	320
f 173 	11 	15
f 322 	321 	274
f 32 	274 	321
f 350 	305 	317
f 354 	324 	280
f 323 	280 	324
f 354 	355 	325
f 354 	325 	324
f 355 	357 	327
f 355 	327 	325
f 310 	308 	356
f 356 	308 	358
f 203 	184 	15
f 318 	327 	360
f 357 	360 	327
f 360 	368 	318
f 356 	362 	310
f 365 	188 	363
f 364 	265 	366
f 318 	368 	332
f 49 	328 	79
f 43 	19 	41
f 368 	371 	334
f 368 	334 	332
f 41 	328 	49
f 371 	374 	335
f 371 	335 	334
f 247 	244 	316
f 374 	376 	336
f 374 	336 	335
f 286 	316 	278
f 376 	378 	338
f 376 	338 	336
f 412 	307 	411
f 380 	339 	378
f 378 	339 	338
f 382 	69 	379
f 339 	380 	96
f 95 	340 	96
f 339 	96 	340
f 309 	345 	293
f 341 	340 	100
f 95 	100 	340
f 63 	329 	64
f 342 	341 	106
f 100 	106 	341
f 313 	269 	311
f 387 	257 	388
f 118 	388 	257
f 106 	112 	343
f 106 	343 	342
f 64 	330 	65
f 383 	367 	389
f 265 	257 	387
f 377 	71 	413
f 379 	71 	377
f 373 	377 	413
f 370 	373 	194
f 390 	312 	369
f 344 	343 	94
f 112 	94 	343
f 265 	387 	366
f 315 	257 	351
f 270 	351 	257
f 83 	329 	63
f 392 	353 	397
f 270 	395 	351
f 367 	351 	395
f 270 	375 	395
f 400 	359 	402
f 65 	331 	266
f 405 	410 	290
f 403 	265 	364
f 416 	406 	151
f 394 	290 	410
f 400 	91 	363
f 90 	363 	91
f 364 	372 	403
f 404 	403 	372
f 366 	387 	133
f 364 	366 	133
f 268 	393 	416
f 407 	151 	406
f 408 	410 	405
f 406 	416 	393
f 422 	404 	409
f 90 	21 	363
f 108 	363 	21
f 235 	246 	210
f 79 	328 	141
f 43 	203 	19
f 130 	365 	115
f 128 	383 	385
f 148 	133 	387
f 380 	246 	191
f 235 	191 	246
f 403 	422 	411
f 141 	329 	83
f 331 	65 	330
f 333 	266 	331
f 381 	128 	385
f 393 	128 	381
f 163 	373 	137
f 194 	373 	413
f 156 	157 	193
f 189 	193 	157
f 191 	96 	380
f 163 	154 	377
f 178 	377 	154
f 188 	365 	194
f 375 	307 	412
f 376 	391 	378
f 178 	181 	377
f 208 	377 	181
f 151 	35 	415
f 151 	415 	416
f 407 	417 	149
f 407 	149 	151
f 246 	380 	378
f 68 	25 	155
f 128 	393 	213
f 213 	393 	214
f 268 	214 	393
f 140 	131 	430
f 418 	430 	131
f 172 	15 	184
f 172 	173 	15
f 237 	384 	228
f 407 	419 	417
f 35 	281 	415
f 399 	391 	376
f 246 	378 	391
f 418 	419 	407
f 418 	407 	430
f 240 	234 	47
f 291 	47 	234
f 15 	19 	203
f 376 	374 	399
f 346 	269 	348
f 313 	348 	269
f 1 	26 	93
f 128 	124 	383
f 367 	383 	124
f 34 	33 	3
f 36 	34 	3
f 33 	155 	25
f 25 	3 	33
f 3 	5 	36
f 39 	36 	5
f 44 	39 	5
f 62 	82 	255
f 86 	80 	243
f 243 	104 	86
f 310 	362 	361
f 398 	399 	371
f 368 	398 	371
f 14 	386 	10
f 24 	69 	14
f 114 	103 	315
f 113 	315 	103
f 182 	223 	175
f 399 	374 	371
f 110 	114 	315
f 10 	45 	5
f 316 	326 	101
f 257 	315 	113
f 60 	65 	104
f 266 	104 	65
f 257 	113 	118
f 25 	24 	3
f 14 	3 	24
f 110 	315 	124
f 351 	124 	315
f 275 	278 	316
f 360 	401 	368
f 175 	209 	216
f 298 	326 	287
f 351 	367 	124
f 243 	60 	104
f 266 	333 	264
f 1 	175 	216
f 401 	357 	394
f 354 	394 	355
f 135 	194 	139
f 413 	139 	194
f 240 	55 	196
f 309 	311 	269
f 398 	368 	401
f 55 	240 	47
f 139 	131 	140
f 413 	131 	139
f 93 	175 	1
f 200 	216 	205
f 205 	216 	209
f 280 	290 	354
f 290 	394 	354
f 349 	312 	390
f 68 	155 	67
f 155 	418 	67
f 355 	394 	357
f 409 	420 	422
f 357 	401 	360
f 403 	404 	422
f 285 	284 	401
f 285 	401 	394
f 384 	14 	382
f 386 	14 	384
f 316 	10 	386
f 107 	101 	337
f 144 	107 	337
f 326 	337 	101
f 69 	382 	14
f 71 	379 	69
f 131 	413 	71
f 284 	283 	398
f 284 	398 	401
f 283 	282 	399
f 283 	399 	398
f 67 	131 	71
f 75 	312 	74
f 312 	349 	74
f 78 	308 	75
f 349 	352 	72
f 352 	353 	72
f 359 	185 	353
f 363 	188 	359
f 370 	194 	365
f 192 	185 	359
f 72 	353 	185
f 108 	365 	363
f 391 	399 	289
f 282 	289 	399
f 246 	391 	289
f 370 	365 	130
f 7 	434 	421
f 5 	4 	421
f 167 	291 	221
f 204 	167 	221
f 80 	82 	243
f 57 	243 	82
f 58 	57 	82
f 62 	58 	82
f 435 	70 	423
f 130 	137 	373
f 148 	113 	174
f 434 	435 	421
f 423 	421 	435
f 273 	227 	84
f 89 	84 	227
f 420 	424 	422
f 5 	421 	10
f 423 	10 	421
f 72 	185 	82
f 183 	177 	82
f 175 	223 	209
f 422 	51 	425
f 208 	379 	377
f 74 	80 	86
f 74 	86 	75
f 425 	411 	422
f 222 	209 	223
f 204 	174 	114
f 204 	114 	167
f 234 	221 	291
f 225 	379 	212
f 208 	212 	379
f 394 	410 	389
f 394 	389 	285
f 77 	89 	227
f 276 	274 	429
f 149 	418 	150
f 250 	251 	414
f 169 	412 	411
f 288 	429 	290
f 405 	290 	429
f 20 	216 	253
f 200 	253 	216
f 232 	414 	251
f 426 	427 	428
f 269 	346 	305
f 273 	84 	277
f 104 	277 	84
f 84 	86 	104
f 381 	385 	427
f 381 	427 	426
f 422 	424 	9
f 422 	9 	11
f 346 	317 	305
f 305 	350 	308
f 169 	20 	252
f 252 	20 	253
f 8 	414 	232
f 408 	428 	427
f 385 	383 	427
f 408 	427 	410
f 347 	6 	333
f 350 	358 	308
f 387 	388 	148
f 267 	333 	6
f 361 	312 	310
f 425 	20 	411
f 410 	427 	383
f 389 	410 	383
f 6 	347 	8
f 264 	333 	267
f 414 	8 	347
f 361 	369 	312
f 216 	425 	51
f 113 	103 	174
f 20 	169 	411
f 288 	276 	429
f 428 	429 	430
f 430 	432 	428
f 103 	114 	174
f 316 	286 	326
f 172 	38 	173
f 113 	148 	118
f 286 	287 	326
f 326 	298 	337
f 408 	405 	429
f 408 	429 	428
f 118 	148 	388
f 298 	293 	345
f 337 	298 	345
f 133 	125 	364
f 426 	428 	432
f 431 	426 	432
f 345 	309 	269
f 406 	432 	407
f 430 	407 	432
f 149 	417 	418
f 131 	67 	418
f 155 	150 	418
f 406 	393 	431
f 406 	431 	432
f 417 	419 	418
f 393 	381 	426
f 393 	426 	431
f 415 	433 	416
f 352 	396 	353
f 396 	397 	353
f 416 	433 	314
f 416 	314 	268
f 314 	301 	268
f 412 	169 	245
f 353 	392 	359
f 392 	402 	359
f 281 	294 	433
f 281 	433 	415
f 372 	364 	125
f 400 	363 	359
f 404 	372 	125
f 434 	67 	435
f 108 	115 	365
f 409 	404 	98
f 370 	130 	373
f 377 	373 	163
f 125 	98 	404
f 424 	420 	98
f 379 	225 	382
f 420 	409 	98
f 225 	228 	384
f 382 	225 	384
f 386 	247 	316
f 275 	316 	244
f 282 	375 	289
f 412 	289 	375
f 245 	289 	412
f 247 	384 	241
f 237 	241 	384
f 384 	247 	386
f 395 	375 	283
f 11 	9 	98
f 98 	15 	11
f 9 	424 	98
f 396 	349 	436
f 390 	436 	349
f 349 	396 	352
f 201 	82 	176
f 255 	82 	201
f 395 	285 	367
f 389 	367 	285
f 180 	179 	183
f 179 	177 	183
f 176 	82 	177
f 183 	82 	185
f 192 	359 	188
f 156 	414 	313
f 348 	313 	414
f 348 	414 	346
f 317 	346 	347
f 347 	346 	414
f 347 	333 	350
f 347 	350 	317
f 358 	350 	333
f 358 	333 	356
f 333 	331 	356
f 362 	356 	331
f 331 	330 	361
f 369 	361 	330
f 331 	361 	362
f 329 	390 	330
f 369 	330 	390
f 329 	436 	390
f 329 	328 	396
f 436 	329 	396
f 397 	396 	328
f 397 	328 	392
f 328 	19 	392
f 402 	392 	19
f 402 	19 	400
f 15 	400 	19
# 888 faces

 #end of obj_0

